# xmcd
#
# Track frame offsets: 
#        150
#        19553
#        35032
#        58393
#        59777
#        73783
#        91715
#        109605
#        127706
#        146482
#        163312
#        185449
#        201749
#
# Disc length: 2998 seconds
#
# Revision: 0
# Processed by: cddbd v1.5.2PL0 Copyright (c) Steve Scherf et al.
# Submitted via: ExactAudioCopyFreeDBPlugin 1.0
#
DISCID=c40bb40d
DTITLE=Cassie Taylor - Out Of My Mind
DYEAR=2013
DGENRE=Blues
TTITLE0=Ol' Mama Dean (Part 1)
TTITLE1=Ol' Mama Dean (Part 2)
TTITLE2=Spare Some Love
TTITLE3=Out Of My Mind (Intro)
TTITLE4=Out Of My Mind
TTITLE5=Lay My Head On Your Pillow
TTITLE6=New Orleans
TTITLE7=No Ring Blues
TTITLE8=No No
TTITLE9=Forgiveness
TTITLE10=Gone And Dead
TTITLE11=That's My Man
TTITLE12=Again
EXTD=
EXTT0=
EXTT1=
EXTT2=
EXTT3=
EXTT4=
EXTT5=
EXTT6=
EXTT7=
EXTT8=
EXTT9=
EXTT10=
EXTT11=
EXTT12=
PLAYORDER=
